<svg version="1.1" xmlns="http://www.w3.org/2000/svg" xmlns:xlink="http://www.w3.org/1999/xlink" x="0px" y="0px" viewBox="0 0 116.2 116.2" enable-background="new 0 0 116.2 116.2" xml:space="preserve">
<path fill="#0578BE" d="M73.1,68.3l-6-6l-5.8,5.8l11.4,11.4l-3.2,3.2L58.1,71.3L46.7,82.7l-3.2-3.2l11.4-11.4l-5.3-5.3L45.5,67 l-4.9-4.9l4.2-4.2l-0.5-0.5l3.2-3.2l0.5,0.5l4.4-4.4l4.9,4.9l-4.4,4.4l5.3,5.3l5.8-5.8L60,55.2l5.1-5.1l3.9,3.9l0.6-0.6l3.2,3.2	l-0.6,0.6l2,2L73.1,68.3z M71.5,33.7c-6-6-11.7-11.7-13.4-18.1c-1.7,6.4-7.4,12.1-13.4,18.1c-9,9-19.1,19.1-19.1,34.4	c0,17.9,14.6,32.5,32.5,32.5c17.9,0,32.5-14.6,32.5-32.5C90.7,52.8,80.5,42.7,71.5,33.7z"/></svg>