<svg version="1.1" xmlns="http://www.w3.org/2000/svg" xmlns:xlink="http://www.w3.org/1999/xlink" viewBox="0 0 719 200" style="enable-background:new 0 0 719 200;" xml:space="preserve">
<style type="text/css">
	.st0{fill:#FFFFFF;}
</style>
<path class="st0" d="M710.7,16c-3.2-5.6-6.3-10.9-6.3-16c-2.5,4.4-7.9,7.5-13.5,10.8c-8.4,4.8-17.9,10.3-21,21.6
	c-3.6,13.3,4.4,26.9,17.6,30.5c13.3,3.6,26.9-4.4,30.5-17.6C721,33.9,715.5,24.4,710.7,16z M705,41.9l-3.2-5.6l-5.4,3.1l6.2,10.7
	l-3,1.7l-6.2-10.7l-10.7,6.2l-1.7-3l10.7-6.2l-2.9-5l-3.9,2.3l-2.6-4.5l3.9-2.3l-0.3-0.4l3-1.7l0.3,0.4l4.1-2.4l2.6,4.5l-4.1,2.4
	l2.9,5l5.4-3.1l-2.1-3.7l4.7-2.7l2.1,3.7l0.5-0.3l1.7,3l-0.5,0.3l1,1.8L705,41.9z"/>
<g>
	<path class="st0" d="M141,22.6l36.4,36.1v104.9L141,200H0V22.6H141z"/>
	<path class="st0" d="M187.2,200V22.6h138.5l38.9,36.1v42.7L342.5,123l22.2,21.9V200h-55.3l-37-35.6V200H187.2z"/>
	<path class="st0" d="M374.5,200V22.6H513l38.9,36.1v68.5L513,164.5h-51.8V200H374.5z"/>
	<path class="st0" d="M561.7,22.6h89v71.4H689V200H561.7V22.6z"/>
</g>
</svg>
