<svg version="1.1" xmlns="http://www.w3.org/2000/svg" xmlns:xlink="http://www.w3.org/1999/xlink" viewBox="0 0 200 813" style="enable-background:new 0 0 200 813;" xml:space="preserve">
<style type="text/css">
	.st0{fill:#FFFFFF;}
</style>
<path class="st0" d="M160.1,0.7c13.4,10.2,26.7,20.5,39.9,31c-1.4,28.5-2.7,56.9-4.1,85.3c-13.4,9.3-26.6,18.6-39.9,28.2
	c-49.8-1.2-99.4-0.7-149.2,1.4C4.5,98.5,2.3,50.4,0,2.3C53.4-0.1,106.8-0.6,160.1,0.7z"/>
<path class="st0" d="M14.1,299.2c-2.3-48.1-4.5-96.2-6.9-144.3c48.6-2.1,97.3-2.6,145.9-1.5c13.3,10.1,26.4,20.5,39.6,30.9
	c-0.6,11.6-1.1,23.2-1.6,34.7c-9.4,6.6-14,9.9-23.3,16.7c8.7,7.4,13,11.2,21.5,18.7c-0.7,15-1.4,29.8-2.1,44.8
	c-18-0.8-36-1.4-54.1-1.7c-12-9.9-23.9-19.7-36.2-29.2c0,11.6,0,17.4,0.1,29C69.5,297.3,41.8,298,14.1,299.2z"/>
<path class="st0" d="M21.2,451.5c-2.3-48.1-4.5-96.2-6.9-144.3c44.9-1.9,89.8-2.4,134.7-1.4c12.3,10.1,24.4,20.4,36.4,30.8
	c-0.9,18.5-1.7,37.2-2.6,55.7c-12.5,9.5-24.7,19.1-36.9,29c-16.2-0.4-32.4-0.7-48.6-0.6c0,11.6,0,17.4,0.1,29
	C72.1,449.8,46.7,450.5,21.2,451.5z"/>
<path class="st0" d="M21.6,459.8c25.3-1.1,50.6-1.7,75.9-1.8c0,19.4,0.1,38.8,0.1,58.2c26.4,0.1,52.9,0.7,79.3,1.8
	c-1.4,28.8-2.7,57.4-4.1,86.2c-48.3-2-96.3-2-144.5,0C26.2,556.1,23.9,508,21.6,459.8z"/>
<path class="st0" d="M123.9,696.9c-10.3-10.3-20.2-20.2-23.2-31.3c-2.9,11.1-12.8,20.9-23.2,31.3c-15.5,15.5-33.1,33.1-33.1,59.5
	c0,31.1,25.3,56.3,56.3,56.3c31.1,0,56.3-25.3,56.3-56.3C157,730,139.4,712.4,123.9,696.9z M126.6,756.8l-10.4-10.4l-10,10
	l19.7,19.7l-5.5,5.5l-19.7-19.7L81,781.6l-5.5-5.5l19.7-19.7l-9.1-9.1l-7.2,7.2l-8.4-8.4l7.2-7.2l-0.9-0.9l5.5-5.5l0.9,0.9l7.5-7.5
	l8.4,8.4l-7.5,7.5l9.1,9.1l10-10l-6.8-6.8l8.8-8.8l6.8,6.8l1-1l5.5,5.5l-1,1l3.5,3.5L126.6,756.8z"/>
</svg>
